<svg width="32" height="32" viewBox="0 0 32 32" fill="none" xmlns="http://www.w3.org/2000/svg">
<rect width="32" height="32" rx="3.2" fill="#FF3838" style="fill:#FF3838;fill:color(display-p3 1.0000 0.2196 0.2196);fill-opacity:1;"/>
<path d="M5.11258 21.24V9.4896H7.78906V15.6749L10.2942 12.9168H13.395L10.4819 16.2787L13.6561 21.24H10.49L8.53978 18.025L7.78906 18.8246V21.24H5.11258ZM14.946 21.24V9.4896H17.6225V14.7773L17.0676 14.1163C17.4267 13.6757 17.8537 13.3248 18.3487 13.0637C18.8438 12.8026 19.3905 12.672 19.9889 12.672C20.7668 12.672 21.4142 12.827 21.931 13.1371C22.4532 13.4472 22.8422 13.8525 23.0979 14.353C23.3535 14.8534 23.4814 15.392 23.4814 15.9686V21.24H20.8049V16.7194C20.8049 16.2406 20.6662 15.8517 20.3887 15.5525C20.1113 15.2533 19.7223 15.101 19.2219 15.0955C18.8846 15.0901 18.5963 15.1581 18.3569 15.2995C18.123 15.4355 17.9407 15.6341 17.8102 15.8952C17.6851 16.1509 17.6225 16.4555 17.6225 16.8091V21.24H14.946ZM26.8645 21.4848C26.4184 21.4848 26.0294 21.3434 25.6976 21.0605C25.3712 20.7776 25.208 20.3941 25.208 19.9099C25.208 19.5835 25.2814 19.3034 25.4283 19.0694C25.5806 18.8355 25.7819 18.6533 26.0321 18.5227C26.2878 18.3922 26.5653 18.3269 26.8645 18.3269C27.316 18.3269 27.7049 18.4683 28.0313 18.7512C28.3577 19.0341 28.5209 19.4203 28.5209 19.9099C28.5209 20.2363 28.4448 20.5165 28.2925 20.7504C28.1401 20.9843 27.9389 21.1638 27.6886 21.289C27.4384 21.4195 27.1637 21.4848 26.8645 21.4848Z" fill="white" style="fill:white;fill:white;fill-opacity:1;"/>
</svg>
